<svg width="64" height="67" viewBox="0 0 64 67" fill="none" xmlns="http://www.w3.org/2000/svg">
<path d="M12.0576 20V45.8206C12.0576 51.9672 21.1777 56.95 32.4278 56.95C43.6779 56.95 52.798 51.9672 52.798 45.8206V20" stroke="white" stroke-width="2" stroke-linecap="round" stroke-linejoin="round"/>
<path d="M12.0576 27.1228V37.0911C12.0576 43.2377 21.1777 48.2205 32.4278 48.2205C43.6779 48.2205 52.798 43.2377 52.798 37.0911V27.1228" stroke="white" stroke-width="2" stroke-linecap="round" stroke-linejoin="round"/>
<path d="M12.0576 19V28.3606C12.0576 34.5072 21.1777 39.49 32.4278 39.49C43.6779 39.49 52.798 34.5072 52.798 28.3606V19" stroke="white" stroke-width="2" stroke-linecap="round" stroke-linejoin="round"/>
<path d="M52.798 19.5408C52.798 13.7148 43.6779 8.99194 32.4278 8.99194C21.1777 8.99194 12.0576 13.7148 12.0576 19.5408C12.0576 25.3667 21.1777 30.0896 32.4278 30.0896C43.6779 30.0896 52.798 25.3667 52.798 19.5408Z" stroke="white" stroke-width="2" stroke-linecap="round" stroke-linejoin="round"/>
<path d="M60 50.0001C60 58.8366 47.464 66 32.0001 66C16.5361 65.9999 4.00003 58.8364 4 49.9999C4 49.9854 4.00003 49.971 4.0001 49.9566L4.00002 16.9999C3.99999 8.16334 16.536 0.999943 32 1C47.4639 1.00006 60 8.16355 60 17.0001C60 17.0142 60 17.0283 59.9999 17.0423L60 50.0001ZM60 50.0001C60 50.0002 60 50 60 50.0001Z" stroke="#146EF5" stroke-width="2"/>
</svg>
